<svg width="512" height="514" viewBox="0 0 512 514" fill="none" xmlns="http://www.w3.org/2000/svg">
<line x1="11" y1="501" x2="501" y2="501" stroke="black" stroke-width="22" stroke-linecap="round"/>
<rect x="138" y="207.148" width="236" height="294.852" fill="#757575" stroke="black" stroke-width="20"/>
<path d="M251.5 40.6737L137 202.856L375 202.856L251.5 40.6737Z" fill="#85664F" stroke="black" stroke-width="22"/>
<path d="M366.093 34.334L249.593 15.334L249.593 50.334L366.093 34.334Z" fill="#FFFF00" stroke="black"/>
<path d="M366 26.567L249.586 11.4926L249.586 39.2613L366 26.567Z" fill="#FF0000" stroke="black"/>
<path d="M278 268.489H234C234 268.489 234 245.66 256 245.66C278 245.66 278 268.489 278 268.489Z" fill="#454545" stroke="black" stroke-width="12"/>
<path d="M330.446 502.019H183.446C183.446 502.019 165.446 400.715 256.446 399.763C347.446 398.812 330.446 502.019 330.446 502.019Z" fill="#3D291A" stroke="black" stroke-width="12"/>
<path d="M276 364.562H237C235.343 364.562 234 363.219 234 361.562V323.666C234 323.666 234 305.12 255.393 304.644C275.658 304.194 278.713 321.663 278.979 323.508C278.995 323.62 279 323.722 279 323.835V361.562C279 363.219 277.657 364.562 276 364.562Z" fill="#454545" stroke="black" stroke-width="12"/>
<path d="M29 234.392V499.012C29 500.669 30.3431 502.012 32 502.012H131C132.657 502.012 134 500.669 134 499.012V258.502V234.392C134 232.735 132.657 231.392 131 231.392H101.5C99.8431 231.392 98.5 232.735 98.5 234.392V255.502C98.5 257.158 97.1569 258.502 95.5 258.502H68.5C66.8431 258.502 65.5 257.158 65.5 255.502V234.392C65.5 232.735 64.1569 231.392 62.5 231.392H32C30.3431 231.392 29 232.735 29 234.392Z" fill="#757575" stroke="black" stroke-width="22"/>
<path d="M101 364.562H62C60.3431 364.562 59 363.219 59 361.562V323.666C59 323.666 59 305.12 80.3934 304.644C100.658 304.194 103.713 321.663 103.979 323.508C103.995 323.62 104 323.722 104 323.835V361.562C104 363.219 102.657 364.562 101 364.562Z" fill="#454545" stroke="black" stroke-width="12"/>
<path d="M380 232.49V497.11C380 498.767 381.343 500.11 383 500.11H482C483.657 500.11 485 498.767 485 497.11V256.599V232.49C485 230.833 483.657 229.49 482 229.49H452.5C450.843 229.49 449.5 230.833 449.5 232.49V253.599C449.5 255.256 448.157 256.599 446.5 256.599H419.5C417.843 256.599 416.5 255.256 416.5 253.599V232.49C416.5 230.833 415.157 229.49 413.5 229.49H383C381.343 229.49 380 230.833 380 232.49Z" fill="#757575" stroke="black" stroke-width="22"/>
<path d="M452 362.659H413C411.343 362.659 410 361.316 410 359.659V321.763C410 321.763 410 303.217 431.393 302.742C451.658 302.291 454.713 319.761 454.979 321.606C454.995 321.718 455 321.82 455 321.933V359.659C455 361.316 453.657 362.659 452 362.659Z" fill="#454545" stroke="black" stroke-width="12"/>
</svg>
